<svg width="124" height="48" viewBox="0 0 124 48" fill="none" xmlns="http://www.w3.org/2000/svg">
<g clip-path="url(#clip0)">
<path d="M9.83178 47.8272C9.70905 47.8272 9.63893 47.7645 9.60394 47.6703L7.53561 41.0327H7.50048L5.41465 47.6703C5.37966 47.7645 5.30955 47.8272 5.18681 47.8272H3.43393C3.32868 47.8272 3.25857 47.7645 3.22358 47.6703L0.1385 37.3139C0.121006 37.2197 0.155993 37.157 0.278731 37.157H2.53992C2.66266 37.157 2.73277 37.2197 2.75026 37.3139L4.46802 44.0142H4.50301L6.53636 37.3139C6.57135 37.2197 6.64146 37.157 6.7642 37.157H8.28924C8.39435 37.157 8.46446 37.2197 8.49959 37.3139L10.6031 44.0142H10.638L12.2858 37.3139C12.3033 37.204 12.3734 37.157 12.4962 37.157H14.7399C14.8626 37.157 14.8977 37.2197 14.8801 37.3139L11.8125 47.6703C11.795 47.7645 11.7073 47.8272 11.5847 47.8272H9.83178Z" fill="#7BD0FF"/>
<path d="M16.9302 37.3139C16.9302 37.2197 17.0003 37.157 17.1055 37.157H19.3317C19.437 37.157 19.5071 37.2197 19.5071 37.3139V41.3152C19.5071 41.3781 19.5421 41.4094 19.6122 41.4094H23.5035C23.5736 41.4094 23.6086 41.3781 23.6086 41.3152V37.3139C23.6086 37.2197 23.6789 37.157 23.784 37.157H26.0102C26.1154 37.157 26.1856 37.2197 26.1856 37.3139V47.6703C26.1856 47.7645 26.1154 47.8272 26.0102 47.8272H23.784C23.6789 47.8272 23.6086 47.7645 23.6086 47.6703V43.5591C23.6086 43.4964 23.5736 43.4651 23.5035 43.4651H19.6122C19.5421 43.4651 19.5071 43.4964 19.5071 43.5591V47.6703C19.5071 47.7645 19.437 47.8272 19.3317 47.8272H17.1055C17.0003 47.8272 16.9302 47.7645 16.9302 47.6703V37.3139Z" fill="#7BD0FF"/>
<path d="M29.1817 45.4108C28.9187 44.6734 28.8486 44.077 28.8486 42.4922C28.8486 40.9073 28.9187 40.311 29.1817 39.5735C29.7951 37.8474 31.4429 36.9844 33.5287 36.9844C35.6147 36.9844 37.2623 37.8474 37.8759 39.5735C38.1389 40.311 38.2088 40.9073 38.2088 42.4922C38.2088 44.077 38.1387 44.6734 37.8759 45.4108C37.2623 47.1369 35.6147 47.9999 33.5287 47.9999C31.4429 48.0001 29.7951 47.1369 29.1817 45.4108ZM35.4042 44.7831C35.5444 44.4065 35.5971 43.8887 35.5971 42.4922C35.5971 41.0957 35.5446 40.5778 35.4042 40.2013C35.1412 39.4637 34.5103 39.0244 33.5287 39.0244C32.5473 39.0244 31.9161 39.4637 31.6533 40.2013C31.513 40.5778 31.4604 41.0957 31.4604 42.4922C31.4604 43.8887 31.513 44.4065 31.6533 44.7831C31.9162 45.5206 32.5473 45.9599 33.5287 45.9599C34.5103 45.96 35.1414 45.5207 35.4042 44.7831Z" fill="#7BD0FF"/>
<path d="M40.873 37.3139C40.873 37.2197 40.9432 37.157 41.0484 37.157H43.2746C43.3797 37.157 43.45 37.2197 43.45 37.3139V45.6776C43.45 45.7403 43.485 45.7717 43.5551 45.7717H48.8137C48.9188 45.7717 48.9889 45.8346 48.9889 45.9286V47.6705C48.9889 47.7646 48.9188 47.8273 48.8137 47.8273H41.0485C40.9433 47.8273 40.8732 47.7646 40.8732 47.6705V37.3139H40.873Z" fill="#7BD0FF"/>
<path d="M51.2144 37.3139C51.2144 37.2197 51.2845 37.157 51.3897 37.157H59.0322C59.1373 37.157 59.2075 37.2197 59.2075 37.3139V38.9928C59.2075 39.087 59.1373 39.1497 59.0322 39.1497H53.8962C53.8261 39.1497 53.7911 39.181 53.7911 39.2439V41.3622C53.7911 41.4249 53.8261 41.4564 53.8962 41.4564H58.1733C58.2785 41.4564 58.3486 41.5191 58.3486 41.6132V43.2765C58.3486 43.3707 58.2785 43.4334 58.1733 43.4334H53.8962C53.8261 43.4334 53.7911 43.4648 53.7911 43.5275V45.74C53.7911 45.8028 53.8261 45.8342 53.8962 45.8342H59.0322C59.1373 45.8342 59.2075 45.8969 59.2075 45.9911V47.67C59.2075 47.7642 59.1373 47.8269 59.0322 47.8269H51.3897C51.2845 47.8269 51.2144 47.7642 51.2144 47.67V37.3139Z" fill="#7BD0FF"/>
<path d="M61.24 46.5408C61.1698 46.4781 61.1347 46.3682 61.2225 46.2741L62.5547 44.9088C62.6248 44.8304 62.73 44.8304 62.8176 44.8931C63.6064 45.4581 64.6756 45.9916 65.9377 45.9916C67.1823 45.9916 67.8834 45.4738 67.8834 44.7205C67.8834 44.0929 67.4627 43.7007 66.0429 43.5281L65.4119 43.4496C62.993 43.1514 61.6432 42.1316 61.6432 40.2485C61.6432 38.287 63.2909 36.9846 65.8676 36.9846C67.4453 36.9846 68.9175 37.4083 69.9167 38.0987C70.0219 38.1615 70.0394 38.2242 69.9518 38.334L68.8826 39.7619C68.8123 39.8404 68.7247 39.8561 68.6371 39.8091C67.7256 39.2755 66.8492 38.9931 65.8676 38.9931C64.8159 38.9931 64.2726 39.4796 64.2726 40.1543C64.2726 40.7662 64.7634 41.1586 66.1306 41.3311L66.7617 41.4096C69.2156 41.7076 70.5129 42.7119 70.5129 44.6421C70.5129 46.5722 68.9177 48.0002 65.8327 48.0002C63.9743 48.0002 62.1689 47.3411 61.24 46.5408Z" fill="#7BD0FF"/>
<path d="M76.0335 37.3139C76.0685 37.2197 76.1386 37.157 76.2614 37.157H78.4701C78.5928 37.157 78.6629 37.2197 78.6979 37.3139L82.7293 47.6703C82.7645 47.7645 82.7293 47.8272 82.6066 47.8272H80.3281C80.2053 47.8272 80.1352 47.7801 80.1002 47.6703L79.4166 45.8029H75.2448L74.5786 47.6703C74.5436 47.7802 74.4735 47.8272 74.3508 47.8272H72.0546C71.9319 47.8272 71.8967 47.7645 71.9319 47.6703L76.0335 37.3139ZM78.7154 43.8416L77.3657 40.107H77.3131L75.9634 43.8416H78.7154Z" fill="#7BD0FF"/>
<path d="M84.8149 37.3139C84.8149 37.2197 84.8851 37.157 84.9903 37.157H87.2165C87.3216 37.157 87.3919 37.2197 87.3919 37.3139V45.6776C87.3919 45.7403 87.4268 45.7717 87.497 45.7717H92.7556C92.8607 45.7717 92.9308 45.8346 92.9308 45.9286V47.6705C92.9308 47.7646 92.8607 47.8273 92.7556 47.8273H84.9904C84.8852 47.8273 84.8151 47.7646 84.8151 47.6705V37.3139H84.8149Z" fill="#7BD0FF"/>
<path d="M95.1562 37.3139C95.1562 37.2197 95.2264 37.157 95.3316 37.157H102.974C103.079 37.157 103.149 37.2197 103.149 37.3139V38.9928C103.149 39.087 103.079 39.1497 102.974 39.1497H97.8381C97.768 39.1497 97.733 39.181 97.733 39.2439V41.3622C97.733 41.4249 97.768 41.4564 97.8381 41.4564H102.115C102.22 41.4564 102.291 41.5191 102.291 41.6132V43.2765C102.291 43.3707 102.22 43.4334 102.115 43.4334H97.8381C97.768 43.4334 97.733 43.4648 97.733 43.5275V45.74C97.733 45.8028 97.768 45.8342 97.8381 45.8342H102.974C103.079 45.8342 103.149 45.8969 103.149 45.9911V47.67C103.149 47.7642 103.079 47.8269 102.974 47.8269H95.3316C95.2264 47.8269 95.1562 47.7642 95.1562 47.67V37.3139Z" fill="#7BD0FF"/>
<path d="M13.4325 34.5286C13.1717 34.5286 12.9979 34.3602 12.9979 34.1075V32.6337H12.9544C11.9546 34.0234 9.99844 34.9919 7.0423 34.9919C3.21685 34.9919 0 33.0549 0 28.8018C0 24.3803 3.21685 22.3591 8.38987 22.3591H12.65C12.8238 22.3591 12.9108 22.2748 12.9108 22.1066V21.1381C12.9108 18.822 11.7807 17.7692 8.25952 17.7692C5.91213 17.7692 4.47751 18.4009 3.4777 19.1588C3.2603 19.3273 2.99945 19.2853 2.86909 19.0747L1.26067 16.2953C1.13031 16.0847 1.17376 15.8743 1.34757 15.748C3.04304 14.5689 5.34697 13.7688 8.78108 13.7688C15.1713 13.7688 17.5188 15.8743 17.5188 20.8432V34.1075C17.5188 34.3602 17.3449 34.5286 17.084 34.5286H13.4325ZM12.9108 27.7069V26.1489C12.9108 25.9805 12.8239 25.8962 12.65 25.8962H9.17243C6.04249 25.8962 4.65146 26.7384 4.65146 28.6333C4.65146 30.3178 5.91213 31.1598 8.25952 31.1598C11.259 31.1598 12.9108 30.023 12.9108 27.7069Z" fill="#33A8F0"/>
<path d="M45.896 34.5285C45.6351 34.5285 45.4612 34.3601 45.4612 34.1074V22.4011C45.4612 19.7904 44.1136 17.9797 41.5054 17.9797C38.9841 17.9797 37.506 19.7904 37.506 22.4011V34.1074C37.506 34.3601 37.3322 34.5285 37.0713 34.5285H33.0719C32.8111 34.5285 32.6373 34.3601 32.6373 34.1074V22.4011C32.6373 19.7904 31.2897 17.9797 28.6815 17.9797C26.1601 17.9797 24.6822 19.7904 24.6822 22.4011V34.1074C24.6822 34.3601 24.5082 34.5285 24.2474 34.5285H20.2481C19.9873 34.5285 19.8135 34.3601 19.8135 34.1074V14.6529C19.8135 14.4003 19.9873 14.2318 20.2481 14.2318H24.2474C24.5082 14.2318 24.6822 14.4003 24.6822 14.6529V16.1267H24.7256C25.6386 14.8635 27.4644 13.7686 30.2466 13.7686C32.7245 13.7686 34.7241 14.737 35.9848 16.4636H36.0282C37.6366 14.7793 39.7233 13.7686 42.7228 13.7686C47.5915 13.7686 50.3302 16.9689 50.3302 21.3062V34.1074C50.3302 34.3601 50.1564 34.5285 49.8955 34.5285H45.896Z" fill="#33A8F0"/>
<path d="M52.9181 34.5285C52.6572 34.5285 52.4834 34.3601 52.4834 34.1074V14.6529C52.4834 14.4003 52.6572 14.2318 52.9181 14.2318H56.9175C57.1783 14.2318 57.3521 14.4003 57.3521 14.6529V16.3794H57.3956C58.3954 14.8214 60.1778 13.7686 62.8294 13.7686C64.4813 13.7686 66.1333 14.4003 67.2201 15.453C67.4375 15.6636 67.4809 15.8319 67.3071 16.0425L65.0032 18.864C64.8294 19.0746 64.612 19.1165 64.3946 18.9483C63.4383 18.3587 62.4384 17.9798 61.3082 17.9798C58.5696 17.9798 57.3524 19.8747 57.3524 23.1172V34.1077C57.3524 34.3604 57.1786 34.5287 56.9177 34.5287H52.9181V34.5285Z" fill="#0069C4"/>
<path d="M67.2756 29.3492C66.8409 28.0439 66.5366 26.4859 66.5366 24.3804C66.5366 22.2749 66.7975 20.6748 67.2321 19.3694C68.4059 15.8322 71.6227 13.7688 75.796 13.7688C80.0997 13.7688 83.2295 15.9164 84.4032 19.3694C84.8815 20.8011 85.0987 22.1907 85.0987 25.4751C85.0987 25.7278 84.9249 25.8962 84.6205 25.8962H71.7096C71.5358 25.8962 71.4488 25.9805 71.4488 26.1489C71.4488 26.7384 71.5792 27.2436 71.7531 27.7069C72.4486 29.6861 74.1005 30.7809 76.4479 30.7809C78.7953 30.7809 80.3169 29.9387 81.3602 28.8438C81.5776 28.6332 81.7948 28.5911 82.0122 28.7596L84.577 30.9492C84.7944 31.1176 84.7944 31.3282 84.6205 31.5388C82.8383 33.5601 79.8823 34.9917 76.0132 34.9917C71.5792 34.9918 68.4492 32.8864 67.2756 29.3492ZM79.9256 20.38C79.3606 18.7377 77.7956 17.7692 75.8393 17.7692C73.8396 17.7692 72.2747 18.7377 71.7095 20.38C71.5357 20.8854 71.4487 21.3906 71.4487 22.1065C71.4487 22.2749 71.5357 22.3591 71.7095 22.3591H79.9254C80.0994 22.3591 80.1863 22.2748 80.1863 22.1065C80.1864 21.3905 80.0995 20.8852 79.9256 20.38Z" fill="#0069C4"/>
<path d="M86.1436 31.7915C85.9697 31.6231 85.9697 31.3704 86.1436 31.2019L88.6215 28.6754C88.7953 28.507 89.0562 28.507 89.2301 28.6754C90.7517 30.0229 93.1859 30.9915 95.3597 30.9915C97.9245 30.9915 99.2286 29.9808 99.2286 28.5912C99.2286 27.3701 98.4896 26.6122 95.7509 26.3595L93.4904 26.1489C89.2301 25.7278 87.0567 23.6224 87.0567 20.1694C87.0567 16.2534 89.9692 13.7688 95.1859 13.7688C98.4462 13.7688 101.185 14.8216 103.054 16.2534C103.272 16.4217 103.272 16.6744 103.141 16.8429L101.011 19.3273C100.837 19.5379 100.62 19.5379 100.402 19.4117C99.0984 18.5272 97.0118 17.7272 94.9251 17.7272C92.8385 17.7272 91.7518 18.6115 91.7518 19.8327C91.7518 21.0117 92.4907 21.7276 95.186 21.9803L97.4465 22.1909C101.837 22.6119 103.924 24.8016 103.924 28.1282C103.924 32.1707 100.881 34.9921 95.1424 34.9921C90.8386 34.9919 87.8824 33.3495 86.1436 31.7915Z" fill="#0069C4"/>
<path d="M123.463 7.51489V17.159C123.463 17.4872 123.188 17.7536 122.849 17.7536H114.255V14.1858H119.166C119.505 14.1858 119.78 13.9195 119.78 13.5912V10.0129L123.463 7.51489Z" fill="#7BD0FF"/>
<path d="M123.463 6.45398V7.51471L119.78 10.0128V8.31156C119.78 8.11778 119.682 7.93575 119.518 7.82451L114.611 4.49649C114.505 4.42393 114.38 4.38826 114.255 4.38881V0.0339417C114.38 0.0333951 114.505 0.0690627 114.611 0.141628L119.78 3.64689L123.201 5.96706C123.365 6.07817 123.463 6.2602 123.463 6.45398Z" fill="#A9E5FF"/>
<path d="M114.256 14.1858V17.7535H113.99C113.864 17.7535 113.741 17.791 113.638 17.8606L108.731 21.1898L107.945 21.7219C106.725 22.5502 105.048 21.704 105.048 20.2609V16.063L108.731 13.5645V16.2628C108.731 16.5035 109.01 16.6444 109.213 16.5065L112.318 14.4004C112.525 14.2606 112.771 14.1857 113.022 14.1857H114.256V14.1858Z" fill="#33A8F0"/>
<path d="M114.256 0.0339355V4.38894C114.133 4.38948 114.012 4.42583 113.908 4.49662L108.993 7.82997C108.829 7.94121 108.731 8.1231 108.731 8.31702V13.5645L105.048 16.063V6.46053C105.048 6.26675 105.145 6.08472 105.309 5.97348L108.731 3.65331L113.908 0.141485C114.012 0.0708331 114.133 0.0346188 114.256 0.0339355Z" fill="#0069C4"/>
</g>
<defs>
<clipPath id="clip0">
<rect width="123.498" height="48" fill="white"/>
</clipPath>
</defs>
</svg>
